<?xml version="1.0" encoding="UTF-8" standalone="no"?>
<!-- Created with Inkscape (http://www.inkscape.org/) -->

<svg
   version="1.1"
   id="svg2"
   width="2099.7515"
   height="1098.4114"
   viewBox="0 0 2099.7515 1098.4114"
   sodipodi:docname="DungeonsAndGriffins.svg"
   inkscape:version="1.2 (dc2aedaf03, 2022-05-15)"
   xmlns:inkscape="http://www.inkscape.org/namespaces/inkscape"
   xmlns:sodipodi="http://sodipodi.sourceforge.net/DTD/sodipodi-0.dtd"
   xmlns="http://www.w3.org/2000/svg"
   xmlns:svg="http://www.w3.org/2000/svg">
  <defs
     id="defs6" />
  <sodipodi:namedview
     id="namedview4"
     pagecolor="#505050"
     bordercolor="#eeeeee"
     borderopacity="1"
     inkscape:showpageshadow="0"
     inkscape:pageopacity="0"
     inkscape:pagecheckerboard="0"
     inkscape:deskcolor="#505050"
     showgrid="false"
     inkscape:zoom="0.61771969"
     inkscape:cx="889.56205"
     inkscape:cy="496.98917"
     inkscape:window-width="1920"
     inkscape:window-height="1017"
     inkscape:window-x="-8"
     inkscape:window-y="-8"
     inkscape:window-maximized="1"
     inkscape:current-layer="svg2" />
  <path
     style="fill:#000000"
     d="m 1546.0998,1096.6649 c -10.59,-7.5322 -36.5,-42.5553 -36.5,-49.3377 0,-0.8781 -0.4206,-2.3825 -0.9347,-3.3431 -3.6614,-6.8413 -11.0506,-38.2814 -11.0749,-47.12196 -0.024,-8.8004 -1.0222,-12.3572 -2.8779,-10.2572 -0.8869,1.0036 -4.7878,5.4095 -8.6687,9.791 -3.8809,4.38136 -8.699,10.14296 -10.7069,12.80356 -5.539,7.3394 -13.243,15.4154 -19.5584,20.5028 -3.1232,2.5158 -5.9035,4.8547 -6.1785,5.1976 -2.8033,3.4948 -28.5081,18.3649 -30.4549,17.6179 -2.3335,-0.8955 -8.1355,-10.3268 -18.5511,-30.1557 -10.0609,-19.1534 -13.8636,-47.42546 -8.4119,-62.53906 4.5358,-12.5742 -1.5255,-11.0711 -10.2389,2.5391 -9.3591,14.6187 -28.7523,31.3748 -46.3499,40.04716 -6.3,3.1048 -12.7144,6.5421 -14.2542,7.6386 -6.2563,4.4548 -22.7391,8.8307 -22.7391,6.0367 0,-0.9776 -0.6225,-2.6663 -1.3834,-3.7526 -8.876,-12.67216 -7.3521,-56.00236 2.8449,-80.89156 1.8203,-4.4431 3.6484,-9.2033 4.0624,-10.5783 0.9507,-3.1575 5.4897,-12.5592 7.9659,-16.5 1.8851,-3 1.8851,-3 -1.5523,0.1624 -28.3625,26.0925 -100.3322,39.133 -131.1547,23.7645 -12.4777,-6.2216 -16.7696,-11.6937 -10.0184,-12.7732 2.135,-0.3414 6.3585,-2.4896 9.7576,-4.9629 3.2963,-2.3985 7.1148,-4.934 8.4856,-5.6344 8.6183,-4.4034 35.4631,-19.8564 37.0425,-21.3232 2.4095,-2.2378 18.987,-12.9402 25.0127,-16.1481 2.5096,-1.336 5.1555,-3.1433 5.88,-4.0161 0.7244,-0.8729 3.0586,-2.5659 5.1872,-3.7622 2.1285,-1.1963 3.87,-2.498 3.87,-2.8927 0,-0.3948 1.4625,-1.64 3.25,-2.7672 12.6663,-7.9874 74.808,-69.4499 94.4991,-93.4661 10.7004,-13.0508 12.326,-24.4751 10.3127,-72.4735 -1.1918,-28.4119 -3.0854,-41.6632 -7.2422,-50.68 -2.5257,-5.4786 -14.7707,-10.9495 -27.8196,-12.4294 -9.0675,-1.0284 -18.4044,-2.8142 -34.5,-6.5985 -22.3717,-5.2599 -60.0967,-17.3383 -70.7215,-22.6429 -3.1468,-1.5711 -6.8073,-2.8565 -8.1344,-2.8565 -1.3271,0 -8.367,-3.15 -15.6441,-7 -7.2771,-3.85 -13.6291,-7 -14.1156,-7 -0.4864,0 -0.8844,-0.3957 -0.8844,-0.8792 0,-0.4836 -3.5763,-2.3558 -7.9474,-4.1605 -4.3711,-1.8047 -10.3336,-5.0961 -13.25,-7.3143 -2.9164,-2.2182 -9.7314,-7.3623 -15.1445,-11.4314 -5.413,-4.0691 -11.7112,-9.2695 -13.9959,-11.5565 -6.2006,-6.2065 -27.669,-24.5014 -32.2291,-27.4648 -2.0253,-1.3162 -9.3293,-11.7428 -11.3562,-16.2114 -5.6892,-12.5424 -0.2808,-14.1374 15.0543,-4.4398 11.8065,7.4663 25.7033,12.411 37.8688,13.4744 5.225,0.4568 15.7776,1.5333 23.4503,2.3924 11.3101,1.2663 16.9877,1.373 30,0.5639 47.5517,-2.9569 47.7995,-2.9927 61.5497,-8.8824 4.125,-1.7669 10.2,-4.357 13.5,-5.7557 7.1045,-3.0114 34.122,-17.711 37.0189,-20.1411 7.5554,-6.3382 18.585,-21.4441 17.9081,-24.5266 -0.8433,-3.8402 -8.1067,-20.1348 -10.6185,-23.8214 -0.9947,-1.4599 -1.8085,-3.0451 -1.8085,-3.5228 0,-0.4776 -1.575,-3.2599 -3.5,-6.1829 -1.925,-2.923 -3.5,-5.6506 -3.5,-6.0614 0,-0.4108 -1.699,-3.184 -3.7755,-6.1627 -2.0765,-2.9787 -4.9905,-8.2327 -6.4756,-11.6755 -2.5304,-5.8661 -5.5234,-10.4548 -14.8887,-22.8261 -4.8468,-6.4024 -33.8359,-33.2552 -38.7148,-35.8617 -5.6063,-2.995 -21.9006,-9.5059 -29.1454,-11.6458 -3.575,-1.0559 -8.525,-2.553 -11,-3.3268 -27.403,-8.5674 -74.0281,-9.0588 -104.5758,-1.1022 -15.1967,3.9583 -39.0383,18.2778 -51.103,30.693 -13.8133,14.2148 -25.2759,52.1098 -25.3136,83.6863 -0.01,5.4155 -0.2446,6.266 -1.6081,5.7428 -3.3955,-1.303 -7.2234,-5.3207 -10.0989,-10.5998 -1.6476,-3.025 -5.3433,-9.775 -8.2125,-15 -2.8692,-5.225 -6.6024,-12.65 -8.296,-16.5 -1.6936,-3.85 -3.65447,-7.9 -4.35767,-9 -5.5836,-8.7345 -22.6108,-64.305 -24.5912,-80.2568 -0.4963,-3.9978 -1.3261,-8.3832 -1.8441,-9.7454 -4.9095,-12.913 -1.2616,-49.4782 7.5449,-75.6286 4.1346,-12.27733 14.889,-30.88184 19.7836,-34.22444 1.19477,-0.81597 6.77947,-5.92846 12.41027,-11.36106 5.6309,-5.43261 12.7621,-11.43138 15.8472,-13.33059 3.0851,-1.89921 7.4535,-4.95355 9.7076,-6.78741 7.7148,-6.27659 14.9508,-9.24081 45.2312,-18.529 4.4132,-1.35369 9.8132,-2.75956 12,-3.12416 2.1869,-0.3646 8.2511,-1.50049 13.4761,-2.52419 18.0109,-3.52877 71.7608,-5.45178 101.5,-3.63137 14,0.85697 14,0.85697 15.5,-1.63043 5.417,-8.98284 29.5998,-21.70891 49,-25.78601 7.425,-1.56042 16.65,-3.543488 20.5,-4.406818 3.85,-0.86333 10.0326,-2.24702 13.739,-3.07486 3.7065,-0.82784 10.0065,-1.93426 14,-2.45871 9.7316,-1.27799 14.8964,-2.82166 17.0394,-5.09282 3.0196,-3.20006 15.8118,-11.42787 24.7295,-15.90569 4.6707,-2.34525 11.9841,-6.50122 16.252,-9.2355 6.8282,-4.37451 21.1462,-10.62915 49.2465,-21.51265 4.4035,-1.70553 13.6285,-4.51674 20.5,-6.24715 6.8715,-1.73041 15.1936,-4.2636 18.4936,-5.62932 3.3,-1.36572 10.725,-4.2077 16.5,-6.31551 5.775,-2.1078 13.425,-5.03273 17,-6.49985 34.6909,-14.2364901 125.3379,-21.3862901 159,-12.5411401 1.925,0.50582 6.875,1.58593 11,2.40026 34.67,6.8443001 43.7498,9.4491201 58.5305,16.7913801 6.0332,2.99699 14.1195,6.73661 17.9695,8.31027 15.1427,6.18947 44.7704,27.90995 54.2127,39.74419 3.1147,3.90361 10.3221,11.85306 16.0165,17.66543 20.3099,20.730418 51.224,64.152568 56.9236,79.955218 1.9069,5.287 5.8259,14.11273 8.7088,19.61273 5.3957,10.29393 8.4951,17.8698 8.3867,20.5 -0.07,1.68731 6.3845,21.8387 9.4481,29.5 7.0742,17.6905 13.3472,41.7183 17.2309,66 1.4075,8.8 3.6862,22.3 5.0639,30 3.331,18.6173 5.4007,32.8489 6.5444,45 0.5176,5.5 1.8881,16.75 3.0455,25 1.1574,8.25 2.4729,21.3 2.9234,29 0.4505,7.7 1.5025,17.6 2.3378,22 0.8353,4.4 1.7864,15.875 2.1135,25.5 0.8303,24.4255 3.6172,46.4339 7.5012,59.2369 1.045,3.4447 3.7441,13.6031 5.9981,22.5743 7.6449,30.4287 19.3007,56.7062 35.8738,80.8762 4.2191,6.1531 9.3496,13.6263 11.4011,16.6071 4.3095,6.2617 32.3437,33.1653 38.27,36.7266 2.2,1.3221 6.5311,4.2553 9.6247,6.5181 3.0936,2.2629 7.1436,4.7261 9,5.4738 4.0874,1.6463 16.8917,10.0969 18.8211,12.4216 2.0412,2.4596 14.4679,9.4981 18.0252,10.2096 9.4413,1.8883 -3.4839,10.1009 -21.0752,13.3911 -5.7177,1.0694 -14.2208,3.0317 -18.8958,4.3606 -26.1152,7.4237 -32.0164,8.7625 -41,9.302 -14.3692,0.8627 -14.3305,0.7366 -3.5623,11.6103 13.8702,14.0062 40.2753,47.7562 43.5518,55.6664 1.7431,4.2082 1.3176,4.4385 -11.8943,6.4392 -43.3717,6.5678 -67.3856,4.2847 -93.5952,-8.8983 -13.5106,-6.7956 -32.5706,-14.7782 -33.3721,-13.9768 -0.5468,0.5469 -1.0724,0.091 6.3664,5.515 7.9768,5.8158 21.991,19.3451 25.8402,24.9463 1.7008,2.475 5.9404,7.875 9.4212,12 3.4808,4.125 9.7456,13.575 13.9216,21 4.1761,7.425 8.4301,14.625 9.4533,16 7.0579,9.4844 22.7055,39.4968 21.3169,40.8862 -1.256,1.2566 -72.7065,0.658 -79.9475,-0.6698 -11.151,-2.0448 -23.0566,-6.2297 -36.3582,-12.7803 -12.3582,-6.0859 -12.3582,-6.0859 -11.7649,-2.011 4.1058,28.2026 2.7754,77.8162 -2.5324,94.43706 -1.1815,3.6999 -0.2821,3.6146 -12.2066,1.158 -2.6741,-0.5509 -7.1741,-2.3777 -10,-4.0594 -18.2663,-10.87096 -22.1685,-13.62676 -28.6228,-20.21396 -3.9054,-3.9857 -8.7493,-9.6355 -10.7643,-12.5551 -4.2865,-6.2109 -4.2452,-6.2567 -6.8121,7.5582 -2.5822,13.897 -11.2139,40.76596 -16.946,52.75006 -2.8938,6.05 -7.5174,15.725 -10.2745,21.5 -5.8748,12.305 -15.5128,27.2405 -20.3273,31.5 -1.865,1.65 -5.2891,5.1847 -7.6092,7.8548 -5.5572,6.3957 -12.4608,4.2004 -28.72,-9.133 -24.5352,-20.1202 -56.9015,-77.6817 -61.6953,-109.72176 -2.5754,-17.2133 -5.0586,-17.4497 -10.5068,-1 -1.4573,4.4 -3.7094,10.4185 -5.0047,13.3744 -1.2952,2.956 -2.3549,6.1154 -2.3549,7.0209 0,0.9056 -2.0128,5.0849 -4.4728,9.28736 -2.4601,4.2025 -5.2475,9.5931 -6.1944,11.9791 -4.4237,11.1472 -24.3189,38.9853 -31.8241,44.5295 -2.376,1.7552 -5.8,5.0328 -7.6087,7.2836 -3.2884,4.0919 -18.7126,17.7525 -24.304,21.5251 -15.0597,10.1609 -15.7335,10.4057 -20.096,7.3028 z M 1258.3155,218.47534 c 9.1286,-9.96106 -3.2287,-36.27856 -20.4011,-43.44824 -11.4902,-4.79731 -22.4002,-1.63554 -20.6526,6.02633 2.0463,8.97142 1.4648,10.42014 4.6743,5.41159 4.7963,-7.48489 25.6234,-0.12614 25.6699,8.72385 0,0.6453 0.7001,2.50405 1.5482,4.13055 4.3591,8.3595 1.7908,15.41134 -5.9296,16.28154 -5.1676,0.58247 -8.2147,0.37566 -0.048,5.38068 4.7295,2.8985 10.9497,2.0647 15.1387,-2.5063 z m 152.1,-16.49759 c 13.5164,-5.43691 36.3767,-26.21287 47.8734,-43.50833 3.6953,-5.559 8.3629,-12.13228 10.3727,-14.60728 4.0274,-4.95967 11.9382,-17.65408 11.9382,-19.15707 0,-1.01502 3.4596,-7.61023 6.2081,-14.21918 4.9945,-12.009688 0.2084,-4.52744 -15.0648,-0.40734 -4.2038,1.13403 -9.4433,2.40011 -11.6433,2.81352 -2.2,0.41341 -8.725,2.56227 -14.5,4.77526 -5.775,2.21298 -18.86,6.74791 -29.0778,10.07763 -10.2296,3.3336 -22.3623,8.06032 -27,10.51881 -5.6308,2.985 -13.3028,5.803 -23.148,8.50248 -8.0992,2.22073 -17.055,5.21797 -19.9018,6.66053 -2.8467,1.44256 -6.3451,2.83257 -7.7741,3.08892 -4.7216,0.84696 -4.6645,2.03271 0.4617,9.58249 11.4596,16.87774 32.7455,35.63037 42.9132,37.80613 7.0355,1.50553 22.4079,0.4606 28.3425,-1.92657 z M 987.09983,741.30614 c -7.4331,-3.2455 -10.5687,-5.3435 -27.1664,-18.1763 -16.5496,-12.7958 -19.5096,-14.4497 -37.3336,-20.8614 -19.3849,-6.9731 -33.1694,-9.8941 -61,-12.9261 -3.025,-0.3295 -6.85,-1.3787 -8.5,-2.3314 -1.65,-0.9527 -5.25,-2.581 -8,-3.6185 -14.0507,-5.301 -17.9783,-9.0636 -26.911,-25.7803 -7.0659,-13.223 -7.5552,-13.4553 -2.5786,-1.2245 9.1494,22.4865 23.4921,36.8425 38.8244,38.8607 1.4659,0.193 3.3402,0.6192 4.1652,0.9472 4.982,1.9808 26.6886,6.6666 30.8825,6.6666 14.6464,0 0.037,11.4374 -18.3825,14.391 -46.445,7.4477 -74.1306,6.5029 -101,-3.4468 -16.4297,-6.0839 -18.1287,-6.4583 -23.1789,-5.1076 -11.4991,3.0756 -14.7434,1.9246 -28.6152,-10.1516 -5.7206,-4.9801 -8.1696,-6.3495 -15.5,-8.6672 -4.7882,-1.5139 -10.9559,-3.6493 -13.7059,-4.7453 -8.1171,-3.2352 -27.1758,-3.8801 -28.0923,-0.9506 -0.5602,1.7904 -8.5787,19.1217 -11.4176,24.6781 -2.2847,4.4717 -19.5575,-0.6581 -30.8021,-9.1478 -2.9376,-2.2179 -5.4947,-3.8788 -5.6825,-3.691 -1.3418,1.3417 8.1567,26.2252 12.5352,32.8388 4.4135,6.6665 3.7793,7.3577 -6.1078,6.6559 -22.9247,-1.6273 -60.4741,-23.288 -72.2116,-41.6559 -22.8166,-35.7057 -19.8565,-71.2524 8.241,-98.9611 5.5377,-5.4611 5.5377,-5.4611 5.8567,-2 0.5421,5.881 5.1932,21.2401 7.778,25.6845 2.8345,4.8741 4.3796,3.742 14.0393,-10.287 12.0434,-17.4909 15.2789,-19.2646 15.389,-8.4364 0.07,6.8849 2.5348,9.9943 12.4747,15.7373 11.3356,6.5494 15.2095,7.3413 18.1522,3.7104 1.3139,-1.6212 3.8857,-4.7477 5.7149,-6.9477 1.8293,-2.2 4.2697,-6.1375 5.4232,-8.75 2.5265,-5.7223 2.7189,-5.7672 4.2916,-1.0019 3.6593,11.0877 17.2773,20.4559 31.5755,21.7216 7.929,0.7019 7.929,0.7019 9.2503,-8.6339 2.0118,-14.2147 9.4164,-27.0034 19.2358,-33.2229 4.0759,-2.5816 16.5313,-1.7513 26.6968,1.7797 7.3403,2.5497 7.3403,2.5497 4,-1.1816 -1.8372,-2.0523 -4.0594,-5.3018 -4.9384,-7.2212 -11.919,-26.0281 -15.6851,-31.1733 -30.5828,-41.782 -5.1809,-3.6893 -11.7596,-8.419 -14.6194,-10.5106 -16.8313,-12.3095 -27.1526,-13.9476 -41.7679,-6.6289 -11.0655,5.5412 -14.9683,19.257 -9.3342,32.8038 1.8879,4.5394 1.9353,4.4687 -2.5216,3.756 -10.1004,-1.6151 -40.6731,-28.8965 -46.3701,-41.3781 -3.8525,-8.4406 -49.7491,26.4493 -61.827,47 -4.2705,7.2663 -4.445,7.394 -7.2252,5.2875 -14.4206,-10.9258 -23.5483,-69.5803 -16.0936,-103.4171 7.4807,-33.9544 18.2639,-56.4741 36.1557,-75.5079 7.8763,-8.3791 7.9202,-8.3702 13.2038,2.6605 4.6195,9.6442 13.0641,22.5242 17.4569,26.6258 2.5691,2.3987 2.5691,2.3987 8.3463,-0.1676 3.1775,-1.4115 7.7446,-3.0856 10.1491,-3.7202 2.4046,-0.6345 9.6046,-3.0916 16,-5.4602 6.6194,-2.4514 15.2894,-4.8331 20.1281,-5.5291 4.675,-0.6725 10.975,-1.8205 14,-2.5511 3.025,-0.7306 8.2,-1.6285 11.5,-1.9953 3.3,-0.3668 10.275,-1.777 15.5,-3.1337 5.225,-1.3568 16.475,-4.2571 25,-6.4452 19.7669,-5.0736 27.3491,-7.4214 31.8742,-9.87 3.8726,-2.0956 11.0263,-4.7185 23.1258,-8.4794 30.9356,-9.6155 42.6564,-17.6324 66.6284,-45.573 4.4706,-5.2107 13.4706,-15.1194 20,-22.0193 14.4258,-15.2444 25.5019,-35.7992 34.0585,-63.2047 0.6897,-2.2092 3.3131,-2.3027 3.3131,-0.118 0,0.8975 0.8515,3.035 1.8921,4.75 1.0407,1.7149 2.2223,4.693 2.6258,6.618 0.4035,1.925 2.7002,7.4249 5.1039,12.222 15.2869,30.5096 18.9362,113.7716 5.7946,132.2104 -8.1692,11.4621 -14.698,21.6194 -14.21,22.1073 0.2859,0.286 2.4939,-2.5263 4.9067,-6.2494 8.5868,-13.2502 30.5692,-34.2903 35.826,-34.2903 0.6192,0 6.7495,-5.5912 13.623,-12.4249 13.9745,-13.8936 17.7346,-20.1486 22.8917,-38.0806 1.4227,-4.947 2.7242,-9.4343 2.8922,-9.9717 0.4602,-1.4723 5.3375,12.1351 6.8019,18.9772 2.6116,12.2016 1.3153,38.9059 -2.5422,52.3689 -5.9369,20.7203 -15.3775,49.7634 -17.5777,54.0762 -1.1797,2.3124 -1.985,4.6838 -1.7897,5.2698 0.3746,1.1238 7.7617,-14.34 7.7617,-16.248 0,-6.3745 26.216,-31.0166 33.329,-31.328 3.9334,-0.1723 3.9395,0.3231 0.2068,16.8611 -3.1344,13.8877 -3.1712,33.835 -0.078,42.4555 2.0631,5.75 1.8206,6.1973 -4.5833,8.4533 -4.7009,1.6561 -12.3704,5.5379 -15.3743,7.7815 -14.1157,10.5431 -14.6283,11.914 -6.1403,16.4215 9.4433,5.0148 31.4793,25.5204 30.4638,28.348 -1.0201,2.8401 -17.2749,15.8017 -27.1904,21.6817 -12.8596,7.6257 -12.936,8.5268 -1.2935,15.2475 5.0733,2.9286 19.3163,14.8103 27.1797,22.6738 5.7837,5.7837 6.4807,7.8421 6.4807,19.1402 0,7.479 3.1165,27.8431 5.0322,32.8817 1.6173,4.2538 0.4236,3.9335 -2.849,-0.7644 -3.2643,-4.6861 -20.2768,-21.0283 -32.7098,-31.3108 -12.3762,-10.2354 -34.3426,-15.853 -50.9734,-14.7445 -5.3601,0.3573 -4.6252,0.4939 6,0.8084 7.3035,0.2162 14.7288,1.4283 18.5,3.0458 3.6443,1.563 8.8393,3.3007 12.0165,5.2714 12.0708,7.4871 39.283,28.6321 41.0785,37.0093 0.4244,1.98 2.3916,9.0001 4.3716,15.6001 6.9118,23.0395 16.15507,101.6157 11.9362,101.4685 -0.4965,-0.017 -4.5028,-1.6034 -8.9028,-3.5245 z m -276.9601,-281.9691 c 30.0244,-7.6827 47.3875,-26.6675 47.4483,-51.8799 0.011,-4.6225 -0.09,-4.8131 -1.7516,-3.3091 -0.9698,0.8777 -6.5429,3.6374 -12.3846,6.1328 -29.7989,12.729 -45.2403,26.0456 -48.9631,42.2259 -2.0356,8.8471 1.5884,10.4287 15.651,6.8303 z m -176.5301,-2.7249 c 0.033,-7.6196 8.1728,-17.4851 11.1595,-13.5256 2.1301,2.824 3.5375,1.6223 2.0146,-1.7202 -2.3236,-5.0997 -8.845,-1.5755 -12.7994,6.9169 -2.4416,5.2434 -3.1398,10.5789 -1.3845,10.5789 0.55,0 1.0044,-1.0125 1.0098,-2.25 z m -413.0098,215.75 c -1.925,-0.7413 -4.4388,-1.3821 -5.5862,-1.4239 -2.1896,-0.08 -13.3795,-7.0321 -13.4012,-8.3261 -0.01,-0.4125 1.7057,-0.75 3.8059,-0.75 10.5038,0 38.1578,-13.8792 47.1815,-23.6797 1.925,-2.0907 2.375,-2.8737 1,-1.74 -5.5112,4.544 -24.1166,15.5675 -29.2634,17.3383 -17.2505,5.935 -47.668703,7.0222 -60.518903,2.163 -4.2447,-1.6052 -9.2927,-3.2344 -11.2177,-3.6205 -9.7941,-1.9644 -34.0838,-25.0528 -44.6705001,-42.4611 -12.0094,-19.7479 -10.1558,-58.7982 4.0585001,-85.5 20.2772,-38.0909 55.1009,-68.5 78.4445,-68.5 4.4039,0 2.7754,2.4758 -2.2485,3.4183 -6.4816,1.2159 -17.243,9.3189 -22.4744,16.9224 -6.9807,10.1461 -6.7259,30.2106 0.5042,39.7006 2.2779,2.99 2.5367,3.1199 1.9095,0.9587 -2.8309,-9.7558 3.1622,-30.8775 11.4344,-40.2991 7.2384,-8.244 29.193903,-16.7743 54.542303,-21.1912 44.2833,-7.7163 69.9016,-5.3107 85.2978,8.0097 5.4042,4.6755 4.9579,5.1095 -2.4163,2.3502 -23.4956,-8.7914 -64.6295,11.0245 -64.3595,31.0048 0.084,6.2357 8.0643,14.2996 13.9158,14.0622 1.1114,-0.045 0.9851,-0.3051 -0.4378,-0.9009 -12.6851,-5.3124 -13.4715,-15.9257 -1.6847,-22.7338 2.5766,-1.4882 5.0153,-3.1775 5.4194,-3.7539 0.4041,-0.5764 0.7416,-0.6554 0.75,-0.1756 0.01,0.4799 0.7595,0.2549 1.669,-0.5 0.9095,-0.7548 1.8095,-1.2599 2,-1.1224 0.1905,0.1375 0.4588,0.2156 0.5963,0.1735 0.1375,-0.042 0.925,-0.2333 1.75,-0.4248 0.825,-0.1916 5.1,-1.3323 9.5,-2.5348 14.6311,-3.9988 61.2107,-3.7125 85,0.5224 14.7901,2.6329 24.343,7.2928 26.0635,12.7137 0.3225,1.0163 2.9092,3.4121 5.7481,5.3239 6.9191,4.6596 3.815,4.5904 -8.4255,-0.1879 -15.6701,-6.117 -27.3381,-5.2018 -43.1083,3.3815 -4.3555,2.3705 -11.7778,10.8147 -11.7778,13.3993 0,1.6898 23.1108,1.9308 37,0.3858 21.2259,-2.3611 26.5557,-3.7057 47,-11.857 35.9386,-14.3291 68.2605,-14.7692 83.4429,-1.1364 5.6274,5.0531 5.6149,6.2699 -0.039,3.8383 -6.9769,-3.0004 -22.4716,-2.4796 -30.4035,1.0219 -3.575,1.5781 -8.4125,3.3679 -10.75,3.9773 -4.4494,1.16 -5.6977,2.6533 -2.2179,2.6533 3.0618,0 8.1094,2.3603 15.1418,7.0804 3.4794,2.3353 13.0761,7.6138 21.3261,11.73 8.25,4.1162 16.1524,8.2879 17.561,9.2703 1.4085,0.9825 3.8321,2.1054 5.3857,2.4953 1.5737,0.3949 7.3143,4.9731 12.9612,10.3365 20.9501,19.8984 43.0776,25.6269 70.1281,18.1551 3.8302,-1.0579 9.889,-2.2384 13.464,-2.6232 3.575,-0.3848 12.125,-2.2297 19,-4.0997 22.8388,-6.2123 60.508,-6.5742 88.1003,-0.8464 6.8198,1.4157 16.1515,3.2548 20.737,4.0869 11.2379,2.0391 18.8345,5.1849 33.6627,13.9398 3.3134,1.9564 8.0374,7.2709 7.2039,8.1045 -0.2917,0.2917 -1.5819,-0.1464 -2.8671,-0.9735 -2.8895,-1.8595 -11.9271,-4.3899 -21.8368,-6.114 -4.125,-0.7176 -11.325,-2.3707 -16,-3.6734 -7.9422,-2.2132 -10.2063,-2.3684 -34.5,-2.3662 -43.9054,0 -56.8125,1.4314 -71.4397,7.9004 -4.1582,1.839 -11.1603,4.6084 -15.5603,6.1543 -5.0173,1.7628 -12.2877,5.6317 -19.5,10.3768 -6.325,4.1614 -13.6368,8.6911 -16.2484,10.0661 -2.6117,1.375 -9.8117,5.5073 -16,9.1829 -16.0506,9.5334 -32.8709,11.9526 -58.0628,8.351 -15.3847,-2.1995 -32.2419,-11.8846 -54.3818,-31.2444 -11.8715,-10.381 -13.0927,-11.0619 -28.2447,-15.7504 -18.0112,-5.5731 -24.6774,-4.8552 -33.9678,3.6581 -8.625,7.9035 -23.0559,15.7653 -31.0945,16.9399 -21.939,3.2058 -33.4678,7.8656 -43,17.3798 -9.3125,9.295 -22.9854,20.5033 -33.5,27.4615 -4.4,2.9118 -9.884,6.5903 -12.1867,8.1745 -5.0741,3.491 -14.1889,7.8239 -16.4866,7.8373 -0.9203,0.01 -2.9952,1.1221 -4.6109,2.4817 -6.4769,5.4499 -30.0582,9.1696 -38.2158,6.0281 z m 864.1431,-91.7311 c 0,-1.5103 -16.832,-17.4623 -21.9069,-20.9008 -6.2284,-4.22 -18.2362,-13.0646 -18.2362,-13.4323 0,-0.159 2.3625,-1.375 5.25,-2.7021 6.3448,-2.9161 13.4493,-7.9773 23.8318,-16.9777 8.7982,-7.627 10.0374,-9.8943 7.155,-13.0911 -1.0736,-1.1907 -3.0528,-3.8269 -4.3982,-5.8583 -2.5742,-3.8866 -13.0559,-12.9506 -19.5205,-16.8802 -2.1,-1.2764 -4.1225,-2.7676 -4.4946,-3.3137 -0.3721,-0.5461 -2.1721,-1.6991 -4,-2.5622 -5.1089,-2.4123 -4.1069,-4.0786 6.1765,-10.2724 18.0519,-10.8728 21.1488,-11.6974 26.4401,-7.0397 10.0419,8.8392 20.59277,8.2801 47.01777,-2.4913 15.9124,-6.4863 22.4051,-11.2372 55.5421,-40.6414 1.925,-1.7081 4.85,-3.7716 6.5,-4.5854 1.65,-0.8138 4.35,-2.4615 6,-3.6615 5.6772,-4.1289 33.4786,-15.3588 38.0232,-15.3588 0.7959,0 5.6162,-1.4011 10.7119,-3.1135 8.7257,-2.9324 10.1961,-3.1215 25.2649,-3.25 15.6851,-0.1338 19.5713,0.2674 44,4.5428 6.05,1.0588 16.4,2.8335 23,3.9437 32.2854,5.431 51.6858,15.4979 73.2364,38.0025 14.063,14.6854 15.3733,17.4013 11.2715,23.363 -8.0805,11.7446 -43.8083,31.578 -68.3674,37.9524 -13.3626,3.4684 -14.2666,3.4017 -16.1584,-1.1909 -3.9298,-9.5403 -9.6423,-16.19 -16.9821,-19.7682 -7.3048,-3.561 -6.9704,-3.4993 -43.68,-8.0589 -32.8406,-4.079 -68.9894,1.7847 -81.444,13.211 -1.7182,1.5764 -4.4534,3.5883 -6.0781,4.471 -1.6248,0.8826 -8.4415,7.6991 -15.1481,15.1476 -16.7484,18.601 -19.1841,20.4699 -45.9777,35.2782 -20.6429,11.409 -33.24357,23.0664 -39.80437,36.8245 -1.621,3.3993 -3.2246,4.4962 -3.2246,2.4137 z"
     id="path170"
     sodipodi:nodetypes="sssssssssssssssssssscsssssssssssssssssssssssssssssssssssssssssssssscsssssscsssssssssssssssssssssssssssssssssssssssssssssssssssssssssssssssssssssssssssssssssssssssssscsssssssssssssssssssssssssssssssssssssssssssssssssssssssssssscsssssssssssssssssssssssssssscssssssssssssssssssssssssssssssssssssssssssssssssscssssssssssssssssssscsscssssssssssssssssssssssssssssssssscssssssssssssscssssssssssssssssssssssssssssssssssss" />
</svg>
